<svg width="40" height="40" viewBox="0 0 40 40" fill="none" xmlns="http://www.w3.org/2000/svg">
<rect x="0.5" y="0.5" width="39" height="39" stroke="#B4BDC4"/>
<path fill-rule="evenodd" clip-rule="evenodd" d="M21.628 13.6314C22.158 13.4118 22.7259 13.2988 23.2996 13.2988C23.8732 13.2988 24.4412 13.4118 24.9711 13.6314C25.501 13.8509 25.9825 14.1728 26.388 14.5785C26.7936 14.9839 27.1153 15.4653 27.3349 15.9951C27.5544 16.525 27.6674 17.093 27.6674 17.6667C27.6674 18.2403 27.5544 18.8083 27.3349 19.3382C27.1153 19.868 26.7935 20.3495 26.3879 20.755C26.3878 20.755 26.3879 20.7549 26.3879 20.755L20.4945 26.6483C20.2212 26.9217 19.778 26.9217 19.5046 26.6483L13.6113 20.755C12.7922 19.9359 12.332 18.825 12.332 17.6667C12.332 16.5083 12.7922 15.3974 13.6113 14.5783C14.4303 13.7593 15.5412 13.2991 16.6996 13.2991C17.8579 13.2991 18.9688 13.7593 19.7879 14.5783L19.9996 14.79L20.2111 14.5785C20.2111 14.5785 20.2112 14.5784 20.2111 14.5785C20.6166 14.1728 21.0982 13.8509 21.628 13.6314ZM25.3978 15.5682C25.1223 15.2925 24.7952 15.0739 24.4352 14.9247C24.0751 14.7755 23.6893 14.6988 23.2996 14.6988C22.9099 14.6988 22.524 14.7755 22.1639 14.9247C21.8039 15.0739 21.4768 15.2925 21.2013 15.5682L20.4945 16.275C20.2212 16.5483 19.778 16.5483 19.5046 16.275L18.7979 15.5683C18.2414 15.0118 17.4866 14.6991 16.6996 14.6991C15.9125 14.6991 15.1577 15.0118 14.6012 15.5683C14.0447 16.1248 13.732 16.8796 13.732 17.6667C13.732 18.4537 14.0447 19.2085 14.6012 19.765L19.9996 25.1634L25.3979 19.765C25.6735 19.4895 25.8923 19.1623 26.0415 18.8023C26.1907 18.4422 26.2674 18.0564 26.2674 17.6667C26.2674 17.2769 26.1907 16.8911 26.0415 16.531C25.8923 16.171 25.6734 15.8437 25.3978 15.5682Z" fill="#313237"/>
</svg>
