<svg width="16" height="14" viewBox="0 0 16 14" fill="none" xmlns="http://www.w3.org/2000/svg">
<path fill-rule="evenodd" clip-rule="evenodd" d="M9.62803 0.631356C10.158 0.411782 10.7259 0.298767 11.2996 0.298767C11.8732 0.298767 12.4412 0.411782 12.9711 0.631356C13.501 0.85093 13.9825 1.17276 14.388 1.57846C14.7936 1.98392 15.1153 2.46531 15.3349 2.99513C15.5544 3.52505 15.6674 4.09304 15.6674 4.66665C15.6674 5.24026 15.5544 5.80825 15.3349 6.33817C15.1153 6.86805 14.7935 7.34947 14.3879 7.75496C14.3878 7.755 14.3879 7.75492 14.3879 7.75496L8.49453 13.6483C8.22117 13.9217 7.77795 13.9217 7.50458 13.6483L1.61125 7.75496C0.79218 6.93589 0.332031 5.82499 0.332031 4.66665C0.332031 3.50831 0.79218 2.39741 1.61125 1.57834C2.43032 0.759273 3.54122 0.299124 4.69956 0.299124C5.8579 0.299124 6.9688 0.759273 7.78787 1.57834L7.99956 1.79003L8.21113 1.57846C8.2111 1.5785 8.21117 1.57842 8.21113 1.57846C8.61662 1.17281 9.09816 0.850909 9.62803 0.631356ZM13.3978 2.56818C13.1223 2.29255 12.7952 2.0739 12.4352 1.92472C12.0751 1.77555 11.6893 1.69877 11.2996 1.69877C10.9099 1.69877 10.524 1.77555 10.1639 1.92472C9.80392 2.0739 9.47681 2.29255 9.20132 2.56818L8.49453 3.27496C8.22117 3.54833 7.77795 3.54833 7.50458 3.27496L6.79792 2.56829C6.2414 2.01177 5.4866 1.69912 4.69956 1.69912C3.91252 1.69912 3.15772 2.01177 2.6012 2.56829C2.04468 3.12481 1.73203 3.87961 1.73203 4.66665C1.73203 5.45369 2.04468 6.20849 2.6012 6.76501L7.99956 12.1634L13.3979 6.76501C13.6735 6.48951 13.8923 6.16229 14.0415 5.80227C14.1907 5.44224 14.2674 5.05635 14.2674 4.66665C14.2674 4.27695 14.1907 3.89106 14.0415 3.53103C13.8923 3.17101 13.6734 2.84367 13.3978 2.56818Z" fill="#313237"/>
</svg>
